<svg width="69" height="69" viewBox="0 0 69 69" fill="none" xmlns="http://www.w3.org/2000/svg">
<rect x="1.5" y="1.5" width="66" height="66" rx="33" fill="white"/>
<rect x="1.5" y="1.5" width="66" height="66" rx="33" stroke="#232323" stroke-width="1.5"/>
<path fill-rule="evenodd" clip-rule="evenodd" d="M22.5812 31.3587C22.7816 31.2041 22.9975 31.0747 23.2248 30.9727C22.9197 30.4191 22.7072 29.8068 22.5956 29.1652C22.4422 28.2835 22.4826 27.3666 22.7114 26.4934C22.9401 25.6201 23.3522 24.8101 23.9174 24.1363C24.4828 23.4623 25.1876 22.9416 25.976 22.6312C26.5921 22.3886 27.2418 22.2817 27.8881 22.3177C28.2289 21.1869 29.216 20.25 30.7518 20.25C31.455 20.25 32.0433 20.3969 32.5147 20.693C32.9913 20.9923 33.2884 21.4064 33.4683 21.8346C33.7679 22.548 33.7584 23.3725 33.753 23.8461C33.7524 23.9025 33.7518 23.9544 33.7518 24V48.7485C33.7518 49.1627 33.416 49.5 33.0018 49.5C31.4171 49.5 30.2618 48.7772 29.6745 47.7227L29.6562 47.6893C29.1536 47.8042 28.6271 47.8021 28.1115 47.6892C27.4989 47.5551 26.9189 47.2688 26.4181 46.8642C25.9173 46.4597 25.5054 45.9449 25.216 45.365C24.9492 44.8303 24.7913 44.2495 24.7578 43.6642C24.2224 43.5786 23.7099 43.3812 23.2539 43.084C22.7204 42.7361 22.2807 42.2621 21.9739 41.704C21.667 41.1459 21.5024 40.5207 21.4946 39.8839C21.4868 39.2471 21.6362 38.6183 21.9295 38.0532C22.0804 37.7625 22.2669 37.4933 22.484 37.2514C22.14 36.943 21.8543 36.5674 21.6403 36.1478C21.3713 35.6202 21.2213 35.0337 21.2015 34.4388C21.1816 33.8439 21.2924 33.2522 21.5296 32.7158C21.7669 32.1791 22.1254 31.7105 22.5812 31.3587ZM28.3472 35.1347C27.753 35.1904 27.162 35.0859 26.6308 34.8243C26.2592 34.6413 26.1064 34.1917 26.2894 33.8201C26.4724 33.4485 26.922 33.2957 27.2936 33.4787C27.5683 33.614 27.8805 33.6719 28.2072 33.6413C28.5349 33.6105 28.8714 33.4909 29.1838 33.2813C29.4964 33.0715 29.7709 32.7807 29.9776 32.4317C30.1844 32.0826 30.3132 31.6925 30.3537 31.2984C30.3941 30.9043 30.3445 30.5251 30.2185 30.1939C30.0712 29.8067 30.2657 29.3735 30.6528 29.2262C31.04 29.0789 31.4732 29.2734 31.6205 29.6605C31.8346 30.2233 31.9088 30.8387 31.8458 31.4517C31.7828 32.0646 31.5841 32.6629 31.2682 33.1961C30.9523 33.7294 30.5253 34.1874 30.0196 34.5268C29.5136 34.8663 28.9402 35.0791 28.3472 35.1347ZM31.2677 43.396C31.6819 43.3955 32.0174 43.0594 32.0169 42.6452C32.0165 42.231 31.6803 41.8955 31.2661 41.896C30.6856 41.8966 30.1165 42.0294 29.6116 42.292C29.106 42.555 28.6811 42.94 28.3828 43.4181C28.0842 43.8966 27.9269 44.4451 27.9225 45.011C27.9193 45.4252 28.2525 45.7636 28.6667 45.7668C29.0809 45.77 29.4193 45.4368 29.4225 45.0226C29.4248 44.7292 29.5055 44.4522 29.6553 44.2123C29.8053 43.9719 30.0252 43.7677 30.3038 43.6228C30.5831 43.4775 30.9134 43.3964 31.2677 43.396ZM24.912 37.7551C24.9167 38.1693 25.2562 38.5012 25.6704 38.4966C25.7981 38.4951 25.91 38.5261 26.001 38.5784C26.0915 38.6305 26.1671 38.7069 26.2208 38.8056C26.2749 38.9051 26.308 39.0296 26.3065 39.1724C26.3023 39.5866 26.6347 39.9258 27.0489 39.93C27.463 39.9342 27.8022 39.6018 27.8064 39.1876C27.8103 38.8044 27.7217 38.4254 27.5381 38.0882C27.3541 37.7502 27.0831 37.4704 26.7488 37.2781C26.415 37.0861 26.0372 36.9923 25.6535 36.9967C25.2393 37.0013 24.9073 37.3409 24.912 37.7551ZM31.357 39.6626C31.7354 39.4941 31.9056 39.0508 31.7372 38.6724C31.5687 38.294 31.1254 38.1238 30.747 38.2922C30.4585 38.4206 30.2064 38.6213 30.0208 38.8819C29.8349 39.143 29.7274 39.4481 29.7056 39.7662C29.6838 40.0834 29.7481 40.3973 29.8816 40.6807C30.0581 41.0554 30.505 41.2161 30.8797 41.0396C31.2544 40.863 31.4151 40.4162 31.2386 40.0415C31.2075 39.9755 31.1988 39.9161 31.202 39.8689C31.2052 39.8228 31.2199 39.784 31.2427 39.7519C31.2658 39.7195 31.3024 39.6869 31.357 39.6626ZM26.5191 26.5766C26.8416 26.4936 27.18 26.4985 27.5008 26.5975C27.8966 26.7196 28.1185 27.1394 27.9964 27.5352C27.8743 27.9311 27.4545 28.1529 27.0587 28.0308C27.0109 28.0161 26.9552 28.0133 26.893 28.0293C26.8297 28.0456 26.7576 28.0822 26.688 28.147C26.6182 28.2119 26.557 28.2999 26.5154 28.4051C26.4738 28.5103 26.456 28.6227 26.462 28.7299C26.468 28.8372 26.4971 28.9291 26.5378 28.9998C26.7443 29.3589 26.6206 29.8174 26.2616 30.0239C25.9025 30.2304 25.444 30.1067 25.2375 29.7477C25.0734 29.4623 24.9827 29.1408 24.9643 28.8139C24.946 28.4871 25.0001 28.1581 25.1204 27.8538C25.2407 27.5494 25.4262 27.2722 25.6662 27.0489C25.9065 26.8253 26.1978 26.6593 26.5191 26.5766ZM30.0679 24.9218C29.656 24.8786 29.357 24.5097 29.4001 24.0977C29.4433 23.6858 29.8122 23.3868 30.2242 23.43C30.5525 23.4643 30.8677 23.5822 31.1359 23.781C31.4045 23.9799 31.6097 24.248 31.7341 24.5567C31.8581 24.8646 31.8958 25.1974 31.8547 25.523C31.8027 25.934 31.4274 26.225 31.0165 26.173C30.6055 26.121 30.3145 25.7458 30.3665 25.3348C30.3775 25.2478 30.3656 25.1741 30.3428 25.1172C30.3202 25.0613 30.2857 25.0179 30.243 24.9862C30.1999 24.9543 30.1417 24.9295 30.0679 24.9218Z" fill="#3C2E25"/>
<path opacity="0.5" fill-rule="evenodd" clip-rule="evenodd" d="M41.1106 22.2982C40.7642 21.1748 39.7782 20.25 38.2529 20.25C37.5497 20.25 36.9614 20.3969 36.49 20.693C36.0133 20.9923 35.7162 21.4064 35.5364 21.8346C35.2368 22.548 35.2462 23.3725 35.2517 23.8461C35.2523 23.9027 35.2529 23.9542 35.2529 24V48.7493C35.2529 48.7885 35.2559 48.8278 35.2617 48.8654C35.3134 49.2 35.5862 49.4616 35.9262 49.4961C35.9514 49.4987 35.977 49.5 36.0029 49.5C37.5876 49.5 38.7429 48.7772 39.3301 47.7227L39.3485 47.6893C39.851 47.8042 40.3776 47.8021 40.8932 47.6892C41.5058 47.5551 42.0858 47.2688 42.5866 46.8642C43.0874 46.4597 43.4993 45.9449 43.7887 45.365C44.0555 44.8303 44.2135 44.2495 44.247 43.6642C44.7823 43.5786 45.2948 43.3812 45.7508 43.084C46.2843 42.7361 46.7239 42.2621 47.0308 41.704C47.3377 41.1459 47.5023 40.5207 47.5101 39.8839C47.5178 39.2471 47.3685 38.6183 47.0752 38.0532C46.9243 37.7625 46.7377 37.4933 46.5206 37.2514C46.8646 36.943 47.1504 36.5674 47.3643 36.1478C47.6333 35.6202 47.7833 35.0337 47.8032 34.4388C47.823 33.8439 47.7123 33.2522 47.4751 32.7158C47.2378 32.1791 46.8793 31.7105 46.4235 31.3587C46.2231 31.2041 46.0072 31.0747 45.7799 30.9727C46.085 30.4191 46.2975 29.8068 46.4091 29.1652C46.5625 28.2835 46.5221 27.3666 46.2933 26.4934C46.0646 25.6201 45.6524 24.8101 45.0872 24.1363C44.5219 23.4623 43.817 22.9416 43.0286 22.6312C42.4126 22.3886 41.7629 22.2817 41.1165 22.3177L41.1106 22.2982ZM42.1698 35.4506C42.7664 35.4669 43.3492 35.3235 43.8619 35.0274C44.2206 34.8202 44.3434 34.3615 44.1362 34.0028C43.9291 33.6442 43.4703 33.5213 43.1117 33.7285C42.8465 33.8817 42.5388 33.9601 42.2108 33.9512C41.8818 33.9422 41.5381 33.845 41.2126 33.6565C40.8868 33.4678 40.5936 33.1958 40.3643 32.8612C40.1349 32.5266 39.9806 32.1459 39.9142 31.7553C39.8447 31.3469 39.4573 31.0722 39.049 31.1417C38.6406 31.2112 38.3659 31.5985 38.4354 32.0069C38.5388 32.6143 38.7766 33.1981 39.1271 33.7093C39.4775 34.2205 39.9339 34.6494 40.4609 34.9546C40.9882 35.2599 41.5744 35.4343 42.1698 35.4506ZM39.4501 37.1361C39.6025 36.751 39.4139 36.3152 39.0288 36.1627C38.6436 36.0103 38.2078 36.1989 38.0554 36.5841C37.9142 36.9408 37.8667 37.3273 37.9266 37.7077C37.9867 38.0885 38.1511 38.4417 38.401 38.7344C38.6502 39.0264 38.9725 39.2447 39.3317 39.3781C39.7201 39.5222 40.1517 39.3243 40.2959 38.936C40.44 38.5476 40.2421 38.116 39.8538 37.9718C39.72 37.9221 39.6154 37.8468 39.5419 37.7606C39.4689 37.6752 39.4246 37.5773 39.4083 37.4741C39.392 37.3705 39.4031 37.2549 39.4501 37.1361ZM42.6009 27.47C42.4111 27.1965 42.1518 26.9791 41.8442 26.8443C41.4648 26.6781 41.0225 26.8509 40.8563 27.2303C40.69 27.6097 40.8629 28.052 41.2423 28.2183C41.288 28.2383 41.332 28.2726 41.3687 28.3254C41.406 28.3791 41.4365 28.4539 41.4469 28.5484C41.4573 28.6431 41.4462 28.7497 41.4089 28.8566C41.3716 28.9634 41.3117 29.0601 41.2371 29.1374C41.1624 29.2146 41.0803 29.2652 41.0033 29.2921C40.6123 29.429 40.4064 29.8568 40.5432 30.2478C40.68 30.6387 41.1079 30.8447 41.4989 30.7079C41.8096 30.5991 42.0884 30.4151 42.3158 30.1796C42.5433 29.9442 42.7173 29.6598 42.8251 29.3508C42.933 29.0419 42.9737 28.7108 42.938 28.3849C42.9022 28.0586 42.7901 27.7426 42.6009 27.47ZM38.4985 43.8533C38.651 43.4682 38.4623 43.0324 38.0772 42.8799C37.6921 42.7275 37.2563 42.9161 37.1038 43.3012C36.9626 43.658 36.9151 44.0444 36.9751 44.4248C37.0351 44.8057 37.1995 45.1589 37.4494 45.4516C37.6987 45.7436 38.0209 45.9619 38.3802 46.0952C38.7685 46.2394 39.2002 46.0415 39.3443 45.6531C39.4885 45.2648 39.2906 44.8332 38.9022 44.689C38.7684 44.6393 38.6639 44.5639 38.5903 44.4778C38.5174 44.3923 38.473 44.2944 38.4568 44.1913C38.4404 44.0877 38.4515 43.9721 38.4985 43.8533ZM39.7517 42.0246C39.7342 41.6108 40.0555 41.2611 40.4693 41.2435C40.8233 41.2285 41.15 41.1338 41.423 40.9772C41.6954 40.8209 41.9067 40.6077 42.0467 40.3614C42.1864 40.1154 42.2557 39.8354 42.2458 39.5421C42.2319 39.1282 42.5562 38.7813 42.9702 38.7674C43.3842 38.7535 43.7311 39.0778 43.745 39.4918C43.764 40.0574 43.6295 40.6119 43.3509 41.1023C43.0725 41.5923 42.6639 41.9945 42.1695 42.2782C41.6759 42.5614 41.1128 42.7176 40.5328 42.7422C40.119 42.7597 39.7693 42.4385 39.7517 42.0246ZM39.2039 24.9683C39.6158 24.9252 39.9148 24.5563 39.8717 24.1443C39.8285 23.7323 39.4596 23.4334 39.0476 23.4765C38.666 23.5165 38.3015 23.6533 37.9921 23.8825C37.6822 24.112 37.4453 24.4212 37.3015 24.7782C37.158 25.1344 37.1137 25.5211 37.1618 25.9012C37.2138 26.3122 37.589 26.6032 38 26.5512C38.4109 26.4992 38.7019 26.124 38.65 25.713C38.6321 25.5714 38.6505 25.4439 38.6928 25.3388C38.7348 25.2346 38.801 25.1499 38.885 25.0878C38.9692 25.0253 39.0768 24.9817 39.2039 24.9683Z" fill="#3C2E25"/>
</svg>
