<svg width="68" height="68" viewBox="0 0 68 68" fill="none" xmlns="http://www.w3.org/2000/svg">
<rect x="0.792969" y="1" width="66" height="66" rx="33" fill="white"/>
<rect x="0.792969" y="1" width="66" height="66" rx="33" stroke="#232323" stroke-width="1.5"/>
<path opacity="0.4" d="M32.2341 19.1651L23.9841 22.2551C22.4091 22.8551 21.1191 24.7151 21.1191 26.4101V38.5601C21.1191 39.7751 21.9141 41.3801 22.8891 42.1001L31.1391 48.2651C32.5941 49.3601 34.9791 49.3601 36.4341 48.2651L44.6841 42.1001C45.6591 41.3651 46.4541 39.7751 46.4541 38.5601V26.4101C46.4541 24.7301 45.1641 22.8551 43.5891 22.2701L35.3391 19.1801C34.4991 18.8501 33.0891 18.8501 32.2341 19.1651Z" fill="#3C2E25"/>
<path d="M33.793 40.375C29.863 40.375 26.668 37.18 26.668 33.25C26.668 29.32 29.863 26.125 33.793 26.125C37.723 26.125 40.918 29.32 40.918 33.25C40.918 37.18 37.723 40.375 33.793 40.375ZM33.793 28.375C31.108 28.375 28.918 30.565 28.918 33.25C28.918 35.935 31.108 38.125 33.793 38.125C36.478 38.125 38.668 35.935 38.668 33.25C38.668 30.565 36.478 28.375 33.793 28.375Z" fill="#3C2E25"/>
<path d="M32.2908 35.8751C31.9158 35.8751 31.5408 35.6801 31.3308 35.3351C31.0158 34.7951 31.1808 34.1051 31.7208 33.7901L32.8608 33.1001C32.9808 33.0251 33.0408 32.9051 33.0408 32.7851V31.3901C33.0408 30.7751 33.5508 30.2651 34.1658 30.2651C34.7808 30.2651 35.2908 30.7601 35.2908 31.3751V32.7701C35.2908 33.6851 34.7958 34.5551 34.0158 35.0201L32.8608 35.7101C32.6958 35.8301 32.4858 35.8751 32.2908 35.8751Z" fill="#3C2E25"/>
</svg>
