<svg width="69" height="68" viewBox="0 0 69 68" fill="none" xmlns="http://www.w3.org/2000/svg">
<rect x="1.5" y="1" width="66" height="66" rx="33" fill="white"/>
<rect x="1.5" y="1" width="66" height="66" rx="33" stroke="#232323" stroke-width="1.5"/>
<path d="M29.9981 44.5001C29.9981 45.7601 30.1931 46.9901 30.5531 48.1301C24.7931 46.1351 20.4431 40.8401 19.9931 34.6451C19.5431 28.0601 23.3381 21.9101 29.4731 19.3301C31.0631 18.6701 31.8731 19.1501 32.2181 19.4951C32.5481 19.8251 33.0131 20.6201 32.3531 22.1351C31.6781 23.6951 31.3481 25.3451 31.3481 27.0551C31.3631 30.1151 32.5631 32.9501 34.5131 35.1251C31.7681 37.3151 29.9981 40.7051 29.9981 44.5001Z" fill="#3C2E25"/>
<path opacity="0.4" d="M48.315 42.58C45.345 46.615 40.635 48.985 35.61 48.985C35.37 48.985 35.13 48.97 34.89 48.955C33.39 48.895 31.935 48.61 30.555 48.13C30.195 46.99 30 45.76 30 44.5C30 40.705 31.77 37.315 34.515 35.125C36.72 37.6 39.885 39.205 43.38 39.355C44.325 39.4 45.27 39.325 46.2 39.16C47.88 38.86 48.555 39.49 48.795 39.895C49.05 40.3 49.32 41.185 48.315 42.58Z" fill="#3C2E25"/>
</svg>
