<svg width="69" height="68" viewBox="0 0 69 68" fill="none" xmlns="http://www.w3.org/2000/svg">
<rect x="1.5" y="1" width="66" height="66" rx="33" fill="white"/>
<rect x="1.5" y="1" width="66" height="66" rx="33" stroke="#232323" stroke-width="1.5"/>
<path d="M44.25 50.125C40.74 50.125 37.875 47.26 37.875 43.75V43C37.875 42.385 38.385 41.875 39 41.875C39.615 41.875 40.125 42.385 40.125 43V43.75C40.125 46.03 41.97 47.875 44.25 47.875C46.53 47.875 48.375 46.03 48.375 43.75C48.375 41.47 46.53 39.625 44.25 39.625H19.5C18.885 39.625 18.375 39.115 18.375 38.5C18.375 37.885 18.885 37.375 19.5 37.375H44.25C47.76 37.375 50.625 40.24 50.625 43.75C50.625 47.26 47.76 50.125 44.25 50.125Z" fill="#3C2E25"/>
<path opacity="0.4" d="M44.25 35.125H19.5C18.885 35.125 18.375 34.615 18.375 34C18.375 33.385 18.885 32.875 19.5 32.875H44.25C46.53 32.875 48.375 31.03 48.375 28.75C48.375 26.47 46.53 24.625 44.25 24.625C41.97 24.625 40.125 26.47 40.125 28.75V29.5C40.125 30.115 39.615 30.625 39 30.625C38.385 30.625 37.875 30.115 37.875 29.5V28.75C37.875 25.24 40.74 22.375 44.25 22.375C47.76 22.375 50.625 25.24 50.625 28.75C50.625 32.26 47.76 35.125 44.25 35.125Z" fill="#3C2E25"/>
<path d="M30.465 30.6249H19.5C18.885 30.6249 18.375 30.1149 18.375 29.4999C18.375 28.8849 18.885 28.3749 19.5 28.3749H30.465C32.07 28.3749 33.375 27.0699 33.375 25.4649C33.375 23.8599 32.07 22.5549 30.465 22.5549C28.86 22.5549 27.555 23.8599 27.555 25.4649V26.0349C27.555 26.6499 27.045 27.1599 26.43 27.1599C25.815 27.1599 25.305 26.6649 25.305 26.0349V25.4649C25.305 22.6149 27.615 20.3049 30.465 20.3049C33.315 20.3049 35.625 22.6149 35.625 25.4649C35.625 28.3149 33.315 30.6249 30.465 30.6249Z" fill="#3C2E25"/>
</svg>
