<svg width="68" height="68" viewBox="0 0 68 68" fill="none" xmlns="http://www.w3.org/2000/svg">
<rect x="0.792969" y="1" width="66" height="66" rx="33" fill="white"/>
<rect x="0.792969" y="1" width="66" height="66" rx="33" stroke="#232323" stroke-width="1.5"/>
<path d="M31.5437 40H36.0437C39.7937 40 42.0437 37.3 42.0437 34V26.365C42.0437 24.79 40.7536 23.5 39.1786 23.5H28.4237C26.8487 23.5 25.5587 24.79 25.5587 26.365V34C25.5437 37.3 27.7937 40 31.5437 40Z" fill="#3C2E25"/>
<path opacity="0.4" d="M31.168 19V23.5H28.918V19C28.918 18.385 29.428 17.875 30.043 17.875C30.658 17.875 31.168 18.385 31.168 19Z" fill="#3C2E25"/>
<path opacity="0.4" d="M38.668 19V23.5H36.418V19C36.418 18.385 36.928 17.875 37.543 17.875C38.158 17.875 38.668 18.385 38.668 19Z" fill="#3C2E25"/>
<path opacity="0.4" d="M34.918 40V49C34.918 49.615 34.408 50.125 33.793 50.125C33.178 50.125 32.668 49.615 32.668 49V40H34.918Z" fill="#3C2E25"/>
</svg>
