<svg width="69" height="69" viewBox="0 0 69 69" fill="none" xmlns="http://www.w3.org/2000/svg">
<rect x="1.5" y="1.5" width="66" height="66" rx="33" fill="white"/>
<rect x="1.5" y="1.5" width="66" height="66" rx="33" stroke="#232323" stroke-width="1.5"/>
<path opacity="0.4" d="M39.0003 50.625C38.5953 50.625 38.2203 50.4 38.0253 50.055C37.8303 49.71 37.8303 49.275 38.0403 48.93L39.6153 46.305C39.9303 45.765 40.6203 45.6 41.1603 45.915C41.7003 46.23 41.8653 46.92 41.5503 47.46L41.1453 48.135C45.2853 47.16 48.3903 43.44 48.3903 39C48.3903 38.385 48.9003 37.875 49.5153 37.875C50.1303 37.875 50.6403 38.385 50.6403 39C50.6253 45.405 45.4053 50.625 39.0003 50.625Z" fill="#3C2E25"/>
<path opacity="0.4" d="M19.5 31.125C18.885 31.125 18.375 30.615 18.375 30C18.375 23.595 23.595 18.375 30 18.375C30.405 18.375 30.78 18.6 30.975 18.945C31.17 19.29 31.17 19.725 30.96 20.07L29.385 22.695C29.07 23.235 28.38 23.4 27.84 23.085C27.3 22.77 27.135 22.08 27.45 21.54L27.855 20.865C23.715 21.84 20.61 25.56 20.61 30C20.625 30.615 20.115 31.125 19.5 31.125Z" fill="#3C2E25"/>
<path d="M32.4986 37.2749L27.7886 34.7399C27.2936 34.4699 26.6936 34.4699 26.1986 34.7399L21.4886 37.2749C21.1436 37.4549 20.9336 37.8299 20.9336 38.2349C20.9336 38.6399 21.1436 39.0149 21.4886 39.1949L26.1986 41.7299C26.4536 41.8649 26.7236 41.9249 26.9936 41.9249C27.2636 41.9249 27.5336 41.8649 27.7886 41.7299L32.4986 39.1949C32.8436 39.0149 33.0536 38.6399 33.0536 38.2349C33.0536 37.8299 32.8286 37.4699 32.4986 37.2749Z" fill="#3C2E25"/>
<path d="M25.4205 42.6149L21.0405 40.425C20.7105 40.26 20.3205 40.2749 19.9905 40.4699C19.6755 40.6649 19.4805 41.01 19.4805 41.385V45.5249C19.4805 46.2449 19.8704 46.8899 20.5154 47.2049L24.8955 49.395C25.0455 49.47 25.2105 49.515 25.3755 49.515C25.5705 49.515 25.7655 49.455 25.9455 49.35C26.2605 49.155 26.4555 48.8099 26.4555 48.4349V44.295C26.4705 43.575 26.0655 42.9299 25.4205 42.6149Z" fill="#3C2E25"/>
<path d="M33.9845 40.4699C33.6695 40.2749 33.2795 40.26 32.9345 40.425L28.5545 42.6149C27.9095 42.9299 27.5195 43.575 27.5195 44.295V48.4349C27.5195 48.8099 27.7145 49.155 28.0295 49.35C28.2095 49.455 28.4045 49.515 28.5995 49.515C28.7645 49.515 28.9295 49.47 29.0795 49.395L33.4595 47.2049C34.1045 46.8899 34.4945 46.2449 34.4945 45.5249V41.385C34.4945 41.01 34.2995 40.6649 33.9845 40.4699Z" fill="#3C2E25"/>
<path d="M47.4986 22.2448L42.7886 19.7098C42.2936 19.4398 41.6936 19.4398 41.1986 19.7098L36.4886 22.2448C36.1436 22.4248 35.9336 22.7998 35.9336 23.2048C35.9336 23.6098 36.1436 23.9848 36.4886 24.1648L41.1986 26.6998C41.4536 26.8348 41.7236 26.8948 41.9936 26.8948C42.2636 26.8948 42.5336 26.8348 42.7886 26.6998L47.4986 24.1648C47.8436 23.9848 48.0536 23.6098 48.0536 23.2048C48.0536 22.7848 47.8286 22.4248 47.4986 22.2448Z" fill="#3C2E25"/>
<path d="M40.4205 27.5698L36.0405 25.3798C35.7105 25.2148 35.3205 25.2298 34.9905 25.4248C34.6755 25.6198 34.4805 25.9648 34.4805 26.3398V30.4798C34.4805 31.1998 34.8704 31.8448 35.5154 32.1598L39.8955 34.3498C40.0455 34.4248 40.2105 34.4698 40.3755 34.4698C40.5705 34.4698 40.7655 34.4098 40.9455 34.3048C41.2605 34.1098 41.4555 33.7648 41.4555 33.3898V29.2498C41.4705 28.5298 41.0655 27.8848 40.4205 27.5698Z" fill="#3C2E25"/>
<path d="M48.9845 25.4248C48.6695 25.2298 48.2795 25.2148 47.9345 25.3798L43.5545 27.5698C42.9095 27.8848 42.5195 28.5298 42.5195 29.2498V33.3898C42.5195 33.7648 42.7145 34.1098 43.0295 34.3048C43.2095 34.4098 43.4045 34.4698 43.5995 34.4698C43.7645 34.4698 43.9295 34.4248 44.0795 34.3498L48.4595 32.1598C49.1045 31.8448 49.4945 31.1998 49.4945 30.4798V26.3398C49.4945 25.9648 49.2995 25.6198 48.9845 25.4248Z" fill="#3C2E25"/>
</svg>
