<svg width="68" height="68" viewBox="0 0 68 68" fill="none" xmlns="http://www.w3.org/2000/svg">
<rect x="1" y="1" width="66" height="66" rx="33" fill="white"/>
<rect x="1" y="1" width="66" height="66" rx="33" stroke="#232323" stroke-width="1.5"/>
<path opacity="0.4" d="M40.285 19H27.715C22.255 19 19 22.255 19 27.715V40.27C19 45.745 22.255 49 27.715 49H40.27C45.73 49 48.985 45.745 48.985 40.285V27.715C49 22.255 45.745 19 40.285 19Z" fill="#3C2E25"/>
<path d="M26.3184 44.3501C25.7034 44.3501 25.1934 43.8401 25.1934 43.2251V40.1201C25.1934 39.5051 25.7034 38.9951 26.3184 38.9951C26.9334 38.9951 27.4434 39.5051 27.4434 40.1201V43.2251C27.4434 43.8551 26.9334 44.3501 26.3184 44.3501Z" fill="#3C2E25"/>
<path d="M34 44.35C33.385 44.35 32.875 43.84 32.875 43.225V37C32.875 36.385 33.385 35.875 34 35.875C34.615 35.875 35.125 36.385 35.125 37V43.225C35.125 43.855 34.615 44.35 34 44.35Z" fill="#3C2E25"/>
<path d="M41.6816 44.35C41.0666 44.35 40.5566 43.84 40.5566 43.225V33.895C40.5566 33.28 41.0666 32.77 41.6816 32.77C42.2966 32.77 42.8066 33.28 42.8066 33.895V43.225C42.8066 43.855 42.3116 44.35 41.6816 44.35Z" fill="#3C2E25"/>
<path d="M42.8064 24.7299C42.8064 24.6549 42.7764 24.5649 42.7614 24.4899C42.7464 24.4299 42.7314 24.3549 42.7164 24.2949C42.6864 24.2349 42.6414 24.1899 42.6114 24.1299C42.5664 24.0699 42.5214 23.9949 42.4614 23.9499C42.4464 23.9349 42.4464 23.9199 42.4314 23.9199C42.3864 23.8899 42.3414 23.8749 42.2964 23.8449C42.2364 23.7999 42.1614 23.7549 42.0864 23.7249C42.0114 23.6949 41.9364 23.6949 41.8614 23.6799C41.8014 23.6649 41.7564 23.6499 41.6964 23.6499H37.3014C36.6864 23.6499 36.1764 24.1599 36.1764 24.7749C36.1764 25.3899 36.6864 25.8999 37.3014 25.8999H39.1764C35.6064 29.6499 31.1064 32.2899 26.0514 33.5649C25.4514 33.7149 25.0764 34.3299 25.2264 34.9299C25.3464 35.4399 25.8114 35.7849 26.3214 35.7849C26.4114 35.7849 26.5014 35.7699 26.5914 35.7549C31.9464 34.4199 36.7314 31.6449 40.5564 27.7149V29.1699C40.5564 29.7849 41.0664 30.2949 41.6814 30.2949C42.2964 30.2949 42.8064 29.7849 42.8064 29.1699V24.7749C42.8064 24.7599 42.8064 24.7449 42.8064 24.7299Z" fill="#3C2E25"/>
</svg>
