<svg width="751" height="605" viewBox="0 0 751 605" fill="none" xmlns="http://www.w3.org/2000/svg">
<g opacity="0.7">
<path d="M382.335 -372.871L383.574 -355.193C392.541 -227.196 260.924 -136.497 144.508 -190.449L127.778 -198.202C18.3544 -248.913 -105.201 -163.1 -95.8905 -42.8575L-92.6346 -0.806585C-85.8983 86.1939 -166.57 154.108 -251.149 132.641V132.641" stroke="#AA7E71" stroke-width="2.31836"/>
<path d="M388.999 -363.248L390.238 -345.57C399.205 -217.573 267.588 -126.874 151.172 -180.826L134.442 -188.579C25.0184 -239.29 -98.5366 -153.477 -89.2264 -33.2344L-85.9705 8.81646C-79.2343 95.8169 -159.906 163.731 -244.485 142.264V142.264" stroke="#AA7E71" stroke-width="2.31836"/>
<path d="M395.726 -353.57L396.964 -335.892C405.932 -207.896 274.314 -117.196 157.898 -171.148L141.168 -178.901C31.745 -229.613 -91.81 -143.8 -82.4999 -23.5567L-79.244 18.4942C-72.5077 105.495 -153.179 173.409 -237.758 151.941V151.941" stroke="#AA7E71" stroke-width="2.31836"/>
<path d="M402.437 -343.928L403.675 -326.249C412.643 -198.253 281.025 -107.553 164.609 -161.505L147.879 -169.259C38.4559 -219.97 -85.0991 -134.157 -75.7889 -13.9141L-72.533 28.1368C-65.7968 115.137 -146.468 183.051 -231.047 161.584V161.584" stroke="#AA7E71" stroke-width="2.31836"/>
<path d="M409.21 -334.244L410.449 -316.566C419.416 -188.569 287.799 -97.8697 171.383 -151.822L154.653 -159.575C45.2294 -210.287 -78.3256 -124.474 -69.0155 -4.23053L-65.7596 37.8204C-59.0233 124.821 -139.695 192.735 -224.274 171.268V171.268" stroke="#AA7E71" stroke-width="2.31836"/>
<path d="M415.913 -324.596L417.152 -306.917C426.119 -178.921 294.502 -88.2213 178.086 -142.173L161.356 -149.927C51.9325 -200.638 -71.6225 -114.825 -62.3124 5.4179L-59.0565 47.4688C-52.3202 134.469 -132.992 202.384 -217.571 180.916V180.916" stroke="#AA7E71" stroke-width="2.31836"/>
<path d="M422.64 -314.942L423.878 -297.263C432.846 -169.267 301.228 -78.567 184.813 -132.519L168.082 -140.272C58.6591 -190.984 -64.896 -105.171 -55.5858 15.0722L-52.3299 57.1231C-45.5936 144.124 -126.265 212.038 -210.844 190.57V190.57" stroke="#AA7E71" stroke-width="2.31836"/>
<path d="M429.366 -305.295L430.605 -287.616C439.572 -159.62 307.955 -68.9205 191.539 -122.872L174.809 -130.626C65.3856 -181.337 -58.1694 -95.5243 -48.8592 24.7187L-45.6033 66.7696C-38.8671 153.77 -119.538 221.684 -204.117 200.217V200.217" stroke="#AA7E71" stroke-width="2.31836"/>
<path d="M436.046 -295.627L437.284 -277.948C446.252 -149.952 314.635 -59.2525 198.219 -113.204L181.488 -120.958C72.0653 -171.669 -51.4897 -85.8563 -42.1795 34.3867L-38.9236 76.4376C-32.1874 163.438 -112.859 231.352 -197.438 209.885V209.885" stroke="#AA7E71" stroke-width="2.31836"/>
<path d="M442.788 -285.981L444.027 -268.302C452.994 -140.306 321.377 -49.6061 204.961 -103.558L188.231 -111.312C78.8075 -162.023 -44.7475 -76.2099 -35.4374 44.0331L-32.1815 86.084C-25.4452 173.085 -106.117 240.999 -190.696 219.531V219.531" stroke="#AA7E71" stroke-width="2.31836"/>
<path d="M449.476 -276.303L450.714 -258.624C459.682 -130.628 328.064 -39.9283 211.648 -93.8803L194.918 -101.634C85.495 -152.345 -38.06 -66.5321 -28.7499 53.7109L-25.494 95.7618C-18.7577 182.762 -99.4291 250.676 -184.008 229.209V229.209" stroke="#AA7E71" stroke-width="2.31836"/>
<path d="M456.218 -266.639L457.456 -248.96C466.424 -120.964 334.806 -30.2643 218.391 -84.2162L201.66 -91.9698C92.2372 -142.681 -31.3178 -56.8681 -22.0077 63.3749L-18.7518 105.426C-12.0155 192.426 -92.6869 260.341 -177.266 238.873V238.873" stroke="#AA7E71" stroke-width="2.31836"/>
<path d="M462.929 -256.998L464.167 -239.32C473.135 -111.323 341.517 -20.6236 225.102 -74.5756L208.371 -82.3291C98.9481 -133.04 -24.6069 -47.2274 -15.2967 73.0156L-12.0408 115.066C-5.30457 202.067 -85.976 269.981 -170.555 248.514V248.514" stroke="#AA7E71" stroke-width="2.31836"/>
<path d="M469.64 -247.34L470.878 -229.661C479.846 -101.665 348.228 -10.9654 231.813 -64.9174L215.082 -72.6709C105.659 -123.382 -17.896 -37.5692 -8.5858 82.6738L-5.32989 124.725C1.40637 211.725 -79.265 279.639 -163.844 258.172V258.172" stroke="#AA7E71" stroke-width="2.31836"/>
<path d="M476.319 -237.68L477.558 -220.001C486.525 -92.005 354.908 -1.30528 238.492 -55.2572L221.762 -63.0108C112.339 -113.722 -11.2163 -27.9091 -1.90611 92.3339L1.3498 134.385C8.08606 221.385 -72.5853 289.3 -157.164 267.832V267.832" stroke="#AA7E71" stroke-width="2.31836"/>
<path d="M482.944 -228.233L484.183 -210.554C493.15 -82.5577 361.533 8.14198 245.117 -45.81L228.387 -53.5635C118.964 -104.275 -4.59127 -18.4618 4.71889 101.781L7.9748 143.832C14.7111 230.833 -65.9603 298.747 -150.539 277.279V277.279" stroke="#AA7E71" stroke-width="2.31836"/>
<path d="M489.499 -218.822L490.738 -201.144C499.705 -73.1476 368.088 17.5521 251.672 -36.3998L234.942 -44.1534C125.518 -94.8646 1.96342 -9.05166 11.2736 111.191L14.5295 153.242C21.2657 240.243 -59.4057 308.157 -143.985 286.689V286.689" stroke="#AA7E71" stroke-width="2.31836"/>
<path d="M496.015 -209.383L497.253 -191.704C506.221 -63.7081 374.603 26.9916 258.188 -26.9604L241.457 -34.7139C132.034 -85.4252 8.47904 0.387796 17.7892 120.631L21.0451 162.682C27.7814 249.682 -52.89 317.596 -137.469 296.129V296.129" stroke="#AA7E71" stroke-width="2.31836"/>
<path d="M502.569 -199.971L503.808 -182.292C512.775 -54.296 381.158 36.4037 264.742 -17.5482L248.012 -25.3018C138.589 -76.0131 15.0337 9.79991 24.3439 130.043L27.5998 172.094C34.3361 259.094 -46.3353 327.009 -130.914 305.541V305.541" stroke="#AA7E71" stroke-width="2.31836"/>
<path d="M509.116 -190.535L510.355 -172.857C519.322 -44.8605 387.705 45.8393 271.289 -8.1127L254.559 -15.8662C145.136 -66.5775 21.5806 19.2355 30.8908 139.478L34.1467 181.529C40.8829 268.53 -39.7885 336.444 -124.367 314.977V314.977" stroke="#AA7E71" stroke-width="2.31836"/>
<path d="M515.663 -181.106L516.902 -163.427C525.869 -35.4308 394.252 55.2689 277.836 1.31699L261.106 -6.43656C151.683 -57.1478 28.1275 28.6651 37.4376 148.908L40.6935 190.959C47.4298 277.96 -33.2416 345.874 -117.821 324.406V324.406" stroke="#AA7E71" stroke-width="2.31836"/>
<path d="M522.202 -171.666L523.441 -153.988C532.408 -25.9913 400.791 64.7084 284.375 10.7564L267.645 3.0029C158.222 -47.7084 34.6665 38.1046 43.9767 158.348L47.2326 200.398C53.9689 287.399 -26.7025 355.313 -111.282 333.846V333.846" stroke="#AA7E71" stroke-width="2.31836"/>
<path d="M528.796 -162.231L530.034 -144.552C539.002 -16.5558 407.385 74.1439 290.969 20.192L274.238 12.4384C164.815 -38.2728 41.2603 47.5401 50.5705 167.783L53.8264 209.834C60.5626 296.835 -20.1088 364.749 -104.688 343.281V343.281" stroke="#AA7E71" stroke-width="2.31836"/>
<path d="M535.351 -152.805L536.589 -135.126C545.557 -7.12999 413.939 83.5697 297.523 29.6178L280.793 21.8642C171.37 -28.8471 47.815 56.9659 57.1251 177.209L60.381 219.26C67.1173 306.26 -13.5541 374.175 -98.1331 352.707V352.707" stroke="#AA7E71" stroke-width="2.31836"/>
<path d="M541.913 -143.395L543.152 -125.716C552.119 2.28017 420.502 92.9799 304.086 39.0279L287.356 31.2744C177.933 -19.4369 54.3775 66.3761 63.6876 186.619L66.9435 228.67C73.6798 315.67 -6.9916 383.585 -91.5706 362.117V362.117" stroke="#AA7E71" stroke-width="2.31836"/>
<path d="M548.421 -133.959L549.659 -116.28C558.627 11.7157 427.01 102.415 310.594 48.4635L293.863 40.7099C184.44 -10.0014 60.8853 75.8116 70.1955 196.055L73.4514 238.106C80.1876 325.106 -0.483786 393.02 -85.0628 371.553V371.553" stroke="#AA7E71" stroke-width="2.31836"/>
<path d="M555.03 -124.512L556.269 -106.833C565.236 21.163 433.619 111.863 317.203 57.9107L300.473 50.1572C191.05 -0.554088 67.4947 85.2589 76.8048 205.502L80.0607 247.553C86.797 334.553 6.12559 402.468 -78.4534 381V381" stroke="#AA7E71" stroke-width="2.31836"/>
<path d="M561.554 -115.088L562.792 -97.4094C571.76 30.5868 440.142 121.287 323.727 67.3346L306.996 59.581C197.573 8.86974 74.0181 94.6827 83.3283 214.926L86.5842 256.977C93.3204 343.977 12.649 411.891 -71.93 390.424V390.424" stroke="#AA7E71" stroke-width="2.31836"/>
<path d="M568.116 -105.692L569.355 -88.0129C578.322 39.9833 446.705 130.683 330.289 76.731L313.559 68.9775C204.136 18.2662 80.5806 104.079 89.8908 224.322L93.1467 266.373C99.8829 353.374 19.2115 421.288 -65.3675 399.82V399.82" stroke="#AA7E71" stroke-width="2.31836"/>
</g>
</svg>
