<svg width="720" height="610" viewBox="0 0 720 610" fill="none" xmlns="http://www.w3.org/2000/svg">
<g opacity="0.7">
<path d="M368.368 977.07L367.13 959.392C358.162 831.396 489.78 740.696 606.195 794.648L622.926 802.401C732.349 853.113 855.904 767.3 846.594 647.057L843.338 605.006C836.601 518.005 917.273 450.091 1001.85 471.559V471.559" stroke="#AA7E71" stroke-width="2.31836"/>
<path d="M361.704 967.447L360.466 949.769C351.498 821.773 483.115 731.073 599.531 785.025L616.262 792.778C725.685 843.49 849.24 757.677 839.93 637.434L836.674 595.383C829.937 508.382 910.609 440.468 995.188 461.936V461.936" stroke="#AA7E71" stroke-width="2.31836"/>
<path d="M354.978 957.77L353.739 940.091C344.771 812.095 476.389 721.395 592.805 775.347L609.535 783.101C718.958 833.812 842.513 747.999 833.203 627.756L829.947 585.705C823.211 498.705 903.882 430.79 988.461 452.258V452.258" stroke="#AA7E71" stroke-width="2.31836"/>
<path d="M348.267 948.127L347.028 930.448C338.06 802.452 469.678 711.753 586.094 765.704L602.824 773.458C712.247 824.169 835.802 738.356 826.492 618.113L823.236 576.062C816.5 489.062 897.171 421.148 981.75 442.615V442.615" stroke="#AA7E71" stroke-width="2.31836"/>
<path d="M341.493 938.443L340.255 920.765C331.287 792.769 462.905 702.069 579.32 756.021L596.051 763.774C705.474 814.486 829.029 728.673 819.719 608.43L816.463 566.379C809.726 479.378 890.398 411.464 974.977 432.932V432.932" stroke="#AA7E71" stroke-width="2.31836"/>
<path d="M334.79 928.795L333.551 911.116C324.584 783.12 456.201 692.421 572.617 746.372L589.347 754.126C698.771 804.837 822.326 719.024 813.015 598.781L809.76 556.73C803.023 469.73 883.695 401.816 968.274 423.283V423.283" stroke="#AA7E71" stroke-width="2.31836"/>
<path d="M328.063 919.141L326.825 901.462C317.857 773.466 449.475 682.766 565.891 736.718L582.621 744.472C692.044 795.183 815.599 709.37 806.289 589.127L803.033 547.076C796.297 460.076 876.968 392.161 961.547 413.629V413.629" stroke="#AA7E71" stroke-width="2.31836"/>
<path d="M321.337 909.494L320.098 891.816C311.131 763.819 442.748 673.12 559.164 727.072L575.894 734.825C685.317 785.537 808.873 699.724 799.562 579.481L796.306 537.43C789.57 450.429 870.242 382.515 954.821 403.982V403.982" stroke="#AA7E71" stroke-width="2.31836"/>
<path d="M314.657 899.826L313.419 882.148C304.451 754.151 436.069 663.452 552.484 717.404L569.215 725.157C678.638 775.869 802.193 690.056 792.883 569.813L789.627 527.762C782.891 440.761 863.562 372.847 948.141 394.314V394.314" stroke="#AA7E71" stroke-width="2.31836"/>
<path d="M307.915 890.18L306.676 872.501C297.709 744.505 429.326 653.805 545.742 707.757L562.472 715.511C671.896 766.222 795.451 680.409 786.14 560.166L782.885 518.115C776.148 431.115 856.82 363.2 941.399 384.668V384.668" stroke="#AA7E71" stroke-width="2.31836"/>
<path d="M301.228 880.502L299.989 862.823C291.021 734.827 422.639 644.128 539.055 698.079L555.785 705.833C665.208 756.544 788.763 670.731 779.453 550.488L776.197 508.437C769.461 421.437 850.132 353.523 934.711 374.99V374.99" stroke="#AA7E71" stroke-width="2.31836"/>
<path d="M294.485 870.838L293.247 853.159C284.279 725.163 415.897 634.463 532.312 688.415L549.043 696.169C658.466 746.88 782.021 661.067 772.711 540.824L769.455 498.773C762.719 411.773 843.39 343.859 927.969 365.326V365.326" stroke="#AA7E71" stroke-width="2.31836"/>
<path d="M287.774 861.197L286.536 843.519C277.568 715.523 409.186 624.823 525.602 678.775L542.332 686.528C651.755 737.24 775.31 651.427 766 531.184L762.744 489.133C756.008 402.132 836.679 334.218 921.258 355.686V355.686" stroke="#AA7E71" stroke-width="2.31836"/>
<path d="M281.063 851.539L279.825 833.861C270.857 705.864 402.475 615.165 518.891 669.117L535.621 676.87C645.044 727.581 768.599 641.768 759.289 521.525L756.033 479.475C749.297 392.474 829.968 324.56 914.547 346.027V346.027" stroke="#AA7E71" stroke-width="2.31836"/>
<path d="M274.384 841.879L273.145 824.2C264.178 696.204 395.795 605.504 512.211 659.456L528.941 667.21C638.364 717.921 761.919 632.108 752.609 511.865L749.353 469.814C742.617 382.814 823.288 314.9 907.867 336.367V336.367" stroke="#AA7E71" stroke-width="2.31836"/>
<path d="M267.759 832.432L266.52 814.753C257.553 686.757 389.17 596.057 505.586 650.009L522.316 657.763C631.739 708.474 755.294 622.661 745.984 502.418L742.728 460.367C735.992 373.367 816.663 305.452 901.242 326.92V326.92" stroke="#AA7E71" stroke-width="2.31836"/>
<path d="M261.204 823.022L259.966 805.343C250.998 677.347 382.615 586.647 499.031 640.599L515.762 648.353C625.185 699.064 748.74 613.251 739.43 493.008L736.174 450.957C729.437 363.957 810.109 296.042 894.688 317.51V317.51" stroke="#AA7E71" stroke-width="2.31836"/>
<path d="M254.688 813.582L253.45 795.904C244.482 667.907 376.1 577.208 492.516 631.16L509.246 638.913C618.669 689.624 742.224 603.811 732.914 483.568L729.658 441.518C722.922 354.517 803.593 286.603 888.172 308.07V308.07" stroke="#AA7E71" stroke-width="2.31836"/>
<path d="M248.134 804.17L246.895 786.491C237.928 658.495 369.545 567.796 485.961 621.747L502.691 629.501C612.114 680.212 735.669 594.399 726.359 474.156L723.103 432.105C716.367 345.105 797.038 277.191 881.617 298.658V298.658" stroke="#AA7E71" stroke-width="2.31836"/>
<path d="M241.587 794.735L240.348 777.056C231.381 649.06 362.998 558.36 479.414 612.312L496.144 620.065C605.567 670.777 729.123 584.964 719.812 464.721L716.556 422.67C709.82 335.669 790.492 267.755 875.071 289.223V289.223" stroke="#AA7E71" stroke-width="2.31836"/>
<path d="M235.04 785.305L233.801 767.626C224.834 639.63 356.451 548.93 472.867 602.882L489.597 610.636C599.021 661.347 722.576 575.534 713.265 455.291L710.01 413.24C703.273 326.24 783.945 258.325 868.524 279.793V279.793" stroke="#AA7E71" stroke-width="2.31836"/>
<path d="M228.501 775.865L227.262 758.187C218.295 630.191 349.912 539.491 466.328 593.443L483.058 601.196C592.482 651.908 716.037 566.095 706.726 445.852L703.471 403.801C696.734 316.8 777.406 248.886 861.985 270.353V270.353" stroke="#AA7E71" stroke-width="2.31836"/>
<path d="M221.907 766.43L220.669 748.751C211.701 620.755 343.319 530.055 459.734 584.007L476.465 591.761C585.888 642.472 709.443 556.659 700.133 436.416L696.877 394.365C690.141 307.365 770.812 239.45 855.391 260.918V260.918" stroke="#AA7E71" stroke-width="2.31836"/>
<path d="M215.353 757.004L214.114 739.325C205.146 611.329 336.764 520.629 453.18 574.581L469.91 582.335C579.333 633.046 702.888 547.233 693.578 426.99L690.322 384.939C683.586 297.939 764.257 230.025 848.836 251.492V251.492" stroke="#AA7E71" stroke-width="2.31836"/>
<path d="M208.79 747.594L207.551 729.915C198.584 601.919 330.201 511.219 446.617 565.171L463.347 572.925C572.771 623.636 696.326 537.823 687.015 417.58L683.76 375.529C677.023 288.529 757.695 220.615 842.274 242.082V242.082" stroke="#AA7E71" stroke-width="2.31836"/>
<path d="M202.282 738.158L201.044 720.48C192.076 592.484 323.694 501.784 440.109 555.736L456.84 563.489C566.263 614.201 689.818 528.388 680.508 408.145L677.252 366.094C670.516 279.093 751.187 211.179 835.766 232.646V232.646" stroke="#AA7E71" stroke-width="2.31836"/>
<path d="M195.673 728.711L194.434 711.032C185.467 583.036 317.084 492.337 433.5 546.288L450.23 554.042C559.653 604.753 683.208 518.94 673.898 398.697L670.642 356.646C663.906 269.646 744.578 201.732 829.157 223.199V223.199" stroke="#AA7E71" stroke-width="2.31836"/>
<path d="M189.149 719.287L187.911 701.609C178.943 573.612 310.561 482.913 426.977 536.865L443.707 544.618C553.13 595.329 676.685 509.517 667.375 389.274L664.119 347.223C657.383 260.222 738.054 192.308 822.633 213.775V213.775" stroke="#AA7E71" stroke-width="2.31836"/>
<path d="M182.587 709.891L181.348 692.212C172.381 564.216 303.998 473.516 420.414 527.468L437.144 535.222C546.567 585.933 670.123 500.12 660.812 379.877L657.556 337.826C650.82 250.826 731.492 182.911 816.071 204.379V204.379" stroke="#AA7E71" stroke-width="2.31836"/>
</g>
</svg>
