<svg width="747" height="611" viewBox="0 0 747 611" fill="none" xmlns="http://www.w3.org/2000/svg">
<g opacity="0.7">
<path d="M378.632 977.432L379.87 959.753C388.838 831.757 257.22 741.057 140.805 795.009L124.074 802.763C14.6513 853.474 -108.904 767.661 -99.5936 647.418L-96.3377 605.367C-89.6014 518.367 -170.273 450.452 -254.852 471.92V471.92" stroke="#AA7E71" stroke-width="2.31836"/>
<path d="M385.296 967.809L386.534 950.13C395.502 822.134 263.885 731.434 147.469 785.386L130.738 793.14C21.3153 843.851 -102.24 758.038 -92.9295 637.795L-89.6736 595.744C-82.9374 508.744 -163.609 440.829 -248.188 462.297V462.297" stroke="#AA7E71" stroke-width="2.31836"/>
<path d="M392.022 958.131L393.261 940.452C402.229 812.456 270.611 721.756 154.195 775.708L137.465 783.462C28.0419 834.173 -95.5131 748.36 -86.203 628.117L-82.9471 586.066C-76.2108 499.066 -156.882 431.152 -241.461 452.619V452.619" stroke="#AA7E71" stroke-width="2.31836"/>
<path d="M398.733 948.488L399.972 930.81C408.94 802.814 277.322 712.114 160.906 766.066L144.176 773.819C34.7528 824.531 -88.8022 738.718 -79.492 618.475L-76.2361 576.424C-69.4999 489.423 -150.171 421.509 -234.75 442.977V442.977" stroke="#AA7E71" stroke-width="2.31836"/>
<path d="M405.507 938.805L406.745 921.126C415.713 793.13 284.095 702.43 167.68 756.382L150.949 764.136C41.5263 814.847 -82.0288 729.034 -72.7186 608.791L-69.4627 566.74C-62.7264 479.74 -143.398 411.825 -227.977 433.293V433.293" stroke="#AA7E71" stroke-width="2.31836"/>
<path d="M412.21 929.156L413.449 911.478C422.416 783.482 290.799 692.782 174.383 746.734L157.653 754.487C48.2294 805.199 -75.3256 719.386 -66.0155 599.143L-62.7596 557.092C-56.0233 470.091 -136.695 402.177 -221.274 423.645V423.645" stroke="#AA7E71" stroke-width="2.31836"/>
<path d="M418.937 919.502L420.175 901.823C429.143 773.827 297.525 683.128 181.109 737.079L164.379 744.833C54.9559 795.544 -68.5991 709.731 -59.2889 589.488L-56.033 547.437C-49.2968 460.437 -129.968 392.523 -214.547 413.99V413.99" stroke="#AA7E71" stroke-width="2.31836"/>
<path d="M425.663 909.856L426.902 892.177C435.869 764.181 304.252 673.481 187.836 727.433L171.106 735.187C61.6825 785.898 -61.8725 700.085 -52.5624 579.842L-49.3065 537.791C-42.5702 450.79 -123.242 382.876 -207.821 404.344V404.344" stroke="#AA7E71" stroke-width="2.31836"/>
<path d="M432.343 900.188L433.581 882.509C442.549 754.513 310.931 663.813 194.516 717.765L177.785 725.519C68.3622 776.23 -55.1928 690.417 -45.8827 570.174L-42.6268 528.123C-35.8905 441.123 -116.562 373.208 -201.141 394.676V394.676" stroke="#AA7E71" stroke-width="2.31836"/>
<path d="M439.085 890.541L440.324 872.863C449.291 744.866 317.674 654.167 201.258 708.119L184.528 715.872C75.1044 766.583 -48.4506 680.77 -39.1405 560.527L-35.8846 518.477C-29.1483 431.476 -109.82 363.562 -194.399 385.029V385.029" stroke="#AA7E71" stroke-width="2.31836"/>
<path d="M445.772 880.863L447.011 863.185C455.979 735.189 324.361 644.489 207.945 698.441L191.215 706.194C81.7919 756.906 -41.7631 671.093 -32.453 550.85L-29.1971 508.799C-22.4608 421.798 -103.132 353.884 -187.711 375.352V375.352" stroke="#AA7E71" stroke-width="2.31836"/>
<path d="M452.515 871.199L453.753 853.521C462.721 725.525 331.103 634.825 214.688 688.777L197.957 696.53C88.5341 747.242 -35.021 661.429 -25.7108 541.186L-22.4549 499.135C-15.7186 412.134 -96.39 344.22 -180.969 365.687V365.687" stroke="#AA7E71" stroke-width="2.31836"/>
<path d="M459.226 861.559L460.464 843.88C469.432 715.884 337.814 625.184 221.398 679.136L204.668 686.89C95.245 737.601 -28.31 651.788 -18.9999 531.545L-15.744 489.494C-9.00769 402.494 -89.6791 334.579 -174.258 356.047V356.047" stroke="#AA7E71" stroke-width="2.31836"/>
<path d="M465.937 851.901L467.175 834.222C476.143 706.226 344.525 615.526 228.109 669.478L211.379 677.231C101.956 727.943 -21.5991 642.13 -12.2889 521.887L-9.03301 479.836C-2.29676 392.835 -82.9682 324.921 -167.547 346.389V346.389" stroke="#AA7E71" stroke-width="2.31836"/>
<path d="M472.616 842.24L473.855 824.562C482.822 696.566 351.205 605.866 234.789 659.818L218.059 667.571C108.636 718.283 -14.9194 632.47 -5.60924 512.227L-2.35333 470.176C4.38293 383.175 -76.2885 315.261 -160.867 336.728V336.728" stroke="#AA7E71" stroke-width="2.31836"/>
<path d="M479.241 832.793L480.48 815.114C489.447 687.118 357.83 596.419 241.414 650.371L224.684 658.124C115.261 708.835 -8.29439 623.022 1.01576 502.779L4.27167 460.728C11.0079 373.728 -69.6635 305.814 -154.242 327.281V327.281" stroke="#AA7E71" stroke-width="2.31836"/>
<path d="M485.796 823.383L487.034 805.704C496.002 677.708 364.385 587.008 247.969 640.96L231.238 648.714C121.815 699.425 -1.73971 613.612 7.57045 493.369L10.8264 451.318C17.5626 364.318 -63.1088 296.404 -147.688 317.871V317.871" stroke="#AA7E71" stroke-width="2.31836"/>
<path d="M492.312 813.943L493.55 796.265C502.518 668.269 370.9 577.569 254.484 631.521L237.754 639.274C128.331 689.986 4.77592 604.173 14.0861 483.93L17.342 441.879C24.0782 354.878 -56.5932 286.964 -141.172 308.432V308.432" stroke="#AA7E71" stroke-width="2.31836"/>
<path d="M498.866 804.531L500.105 786.853C509.072 658.857 377.455 568.157 261.039 622.109L244.309 629.862C134.886 680.574 11.3306 594.761 20.6408 474.518L23.8967 432.467C30.6329 345.466 -50.0385 277.552 -134.617 299.02V299.02" stroke="#AA7E71" stroke-width="2.31836"/>
<path d="M505.413 795.096L506.652 777.417C515.619 649.421 384.002 558.721 267.586 612.673L250.856 620.427C141.433 671.138 17.8775 585.325 27.1876 465.082L30.4435 423.031C37.1798 336.031 -43.4916 268.116 -128.071 289.584V289.584" stroke="#AA7E71" stroke-width="2.31836"/>
<path d="M511.96 785.666L513.199 767.988C522.166 639.991 390.549 549.292 274.133 603.244L257.403 610.997C147.979 661.708 24.4244 575.895 33.7345 455.652L36.9904 413.602C43.7267 326.601 -36.9447 258.687 -121.524 280.154V280.154" stroke="#AA7E71" stroke-width="2.31836"/>
<path d="M518.499 776.227L519.738 758.548C528.705 630.552 397.088 539.852 280.672 593.804L263.942 601.558C154.518 652.269 30.9634 566.456 40.2736 446.213L43.5295 404.162C50.2657 317.162 -30.4057 249.247 -114.985 270.715V270.715" stroke="#AA7E71" stroke-width="2.31836"/>
<path d="M525.093 766.791L526.331 749.113C535.299 621.116 403.681 530.417 287.266 584.369L270.535 592.122C161.112 642.833 37.5572 557.02 46.8673 436.777L50.1232 394.727C56.8595 307.726 -23.8119 239.812 -108.391 261.279V261.279" stroke="#AA7E71" stroke-width="2.31836"/>
<path d="M531.647 757.365L532.886 739.687C541.854 611.691 410.236 520.991 293.82 574.943L277.09 582.696C167.667 633.408 44.1119 547.595 53.422 427.352L56.6779 385.301C63.4142 298.3 -17.2572 230.386 -101.836 251.853V251.853" stroke="#AA7E71" stroke-width="2.31836"/>
<path d="M538.21 747.955L539.449 730.277C548.416 602.28 416.799 511.581 300.383 565.533L283.653 573.286C174.229 623.997 50.6744 538.184 59.9845 417.941L63.2404 375.891C69.9767 288.89 -10.6947 220.976 -95.2737 242.443V242.443" stroke="#AA7E71" stroke-width="2.31836"/>
<path d="M544.718 738.52L545.956 720.841C554.924 592.845 423.306 502.145 306.891 556.097L290.16 563.851C180.737 614.562 57.1822 528.749 66.4923 408.506L69.7482 366.455C76.4845 279.455 -4.18691 211.54 -88.7659 233.008V233.008" stroke="#AA7E71" stroke-width="2.31836"/>
<path d="M551.327 729.072L552.566 711.394C561.533 583.398 429.916 492.698 313.5 546.65L296.77 554.403C187.347 605.115 63.7915 519.302 73.1017 399.059L76.3576 357.008C83.0939 270.007 2.42246 202.093 -82.1565 223.561V223.561" stroke="#AA7E71" stroke-width="2.31836"/>
<path d="M557.851 719.649L559.089 701.97C568.057 573.974 436.439 483.274 320.023 537.226L303.293 544.98C193.87 595.691 70.315 509.878 79.6251 389.635L82.881 347.584C89.6173 260.583 8.9459 192.669 -75.6331 214.137V214.137" stroke="#AA7E71" stroke-width="2.31836"/>
<path d="M564.413 710.252L565.652 692.573C574.619 564.577 443.002 473.878 326.586 527.829L309.856 535.583C200.433 586.294 76.8775 500.481 86.1876 380.238L89.4435 338.187C96.1798 251.187 15.5084 183.273 -69.0706 204.74V204.74" stroke="#AA7E71" stroke-width="2.31836"/>
</g>
</svg>
