<svg width="720" height="603" viewBox="0 0 720 603" fill="none" xmlns="http://www.w3.org/2000/svg">
<g opacity="0.7">
<path d="M368.368 -374.639L367.13 -356.96C358.162 -228.964 489.78 -138.264 606.195 -192.216L622.926 -199.97C732.349 -250.681 855.904 -164.868 846.594 -44.6251L843.338 -2.57416C836.601 84.4263 917.273 152.341 1001.85 130.873V130.873" stroke="#AA7E71" stroke-width="2.31836"/>
<path d="M361.704 -365.016L360.466 -347.337C351.498 -219.341 483.115 -128.641 599.531 -182.593L616.262 -190.347C725.685 -241.058 849.24 -155.245 839.93 -35.002L836.674 7.04888C829.937 94.0494 910.609 161.964 995.188 140.496V140.496" stroke="#AA7E71" stroke-width="2.31836"/>
<path d="M354.978 -355.338L353.739 -337.659C344.771 -209.663 476.389 -118.963 592.805 -172.915L609.535 -180.669C718.958 -231.38 842.513 -145.567 833.203 -25.3243L829.947 16.7266C823.211 103.727 903.882 171.641 988.461 150.174V150.174" stroke="#AA7E71" stroke-width="2.31836"/>
<path d="M348.267 -345.695L347.028 -328.017C338.06 -200.021 469.678 -109.321 586.094 -163.273L602.824 -171.026C712.247 -221.738 835.802 -135.925 826.492 -15.6817L823.236 26.3692C816.5 113.37 897.171 181.284 981.75 159.816V159.816" stroke="#AA7E71" stroke-width="2.31836"/>
<path d="M341.493 -336.012L340.255 -318.333C331.287 -190.337 462.905 -99.6373 579.32 -153.589L596.051 -161.343C705.474 -212.054 829.029 -126.241 819.719 -5.99811L816.463 36.0528C809.726 123.053 890.398 190.968 974.977 169.5V169.5" stroke="#AA7E71" stroke-width="2.31836"/>
<path d="M334.79 -326.363L333.551 -308.685C324.584 -180.689 456.201 -89.9889 572.617 -143.941L589.347 -151.694C698.771 -202.406 822.326 -116.593 813.015 3.65033L809.76 45.7012C803.023 132.702 883.695 200.616 968.274 179.148V179.148" stroke="#AA7E71" stroke-width="2.31836"/>
<path d="M328.063 -316.709L326.825 -299.03C317.857 -171.034 449.475 -80.3346 565.891 -134.287L582.621 -142.04C692.044 -192.751 815.599 -106.938 806.289 13.3046L803.033 55.3555C796.297 142.356 876.968 210.27 961.547 188.803V188.803" stroke="#AA7E71" stroke-width="2.31836"/>
<path d="M321.337 -307.063L320.098 -289.384C311.131 -161.388 442.748 -70.6881 559.164 -124.64L575.894 -132.394C685.317 -183.105 808.873 -97.2919 799.562 22.9511L796.306 65.002C789.57 152.002 870.242 219.917 954.821 198.449V198.449" stroke="#AA7E71" stroke-width="2.31836"/>
<path d="M314.657 -297.395L313.419 -279.716C304.451 -151.72 436.069 -61.0201 552.484 -114.972L569.215 -122.726C678.638 -173.437 802.193 -87.6239 792.883 32.6191L789.627 74.67C782.891 161.67 863.562 229.585 948.141 208.117V208.117" stroke="#AA7E71" stroke-width="2.31836"/>
<path d="M307.915 -287.748L306.676 -270.07C297.709 -142.073 429.326 -51.3736 545.742 -105.326L562.472 -113.079C671.896 -163.79 795.451 -77.9774 786.14 42.2656L782.885 84.3165C776.148 171.317 856.82 239.231 941.399 217.764V217.764" stroke="#AA7E71" stroke-width="2.31836"/>
<path d="M301.228 -278.07L299.989 -260.392C291.021 -132.396 422.639 -41.6959 539.055 -95.6479L555.785 -103.401C665.208 -154.113 788.763 -68.2997 779.453 51.9433L776.197 93.9942C769.461 180.995 850.132 248.909 934.711 227.441V227.441" stroke="#AA7E71" stroke-width="2.31836"/>
<path d="M294.485 -268.406L293.247 -250.728C284.279 -122.732 415.897 -32.0318 532.312 -85.9838L549.043 -93.7373C658.466 -144.449 782.021 -58.6356 772.711 61.6074L769.455 103.658C762.719 190.659 843.39 258.573 927.969 237.105V237.105" stroke="#AA7E71" stroke-width="2.31836"/>
<path d="M287.774 -258.766L286.536 -241.087C277.568 -113.091 409.186 -22.3912 525.602 -76.3432L542.332 -84.0967C651.755 -134.808 775.31 -48.995 766 71.248L762.744 113.299C756.008 200.299 836.679 268.214 921.258 246.746V246.746" stroke="#AA7E71" stroke-width="2.31836"/>
<path d="M281.063 -249.108L279.825 -231.429C270.857 -103.433 402.475 -12.733 518.891 -66.685L535.621 -74.4385C645.044 -125.15 768.599 -39.3368 759.289 80.9062L756.033 122.957C749.297 209.958 829.968 277.872 914.547 256.404V256.404" stroke="#AA7E71" stroke-width="2.31836"/>
<path d="M274.384 -239.447L273.145 -221.769C264.178 -93.7726 395.795 -3.07286 512.211 -57.0248L528.941 -64.7784C638.364 -115.49 761.919 -29.6767 752.609 90.5663L749.353 132.617C742.617 219.618 823.288 287.532 907.867 266.064V266.064" stroke="#AA7E71" stroke-width="2.31836"/>
<path d="M267.759 -230L266.52 -212.321C257.553 -84.3253 389.17 6.37441 505.586 -47.5775L522.316 -55.3311C631.739 -106.042 755.294 -20.2294 745.984 100.014L742.728 142.065C735.992 229.065 816.663 296.979 901.242 275.512V275.512" stroke="#AA7E71" stroke-width="2.31836"/>
<path d="M261.204 -220.59L259.966 -202.911C250.998 -74.9151 382.615 15.7846 499.031 -38.1674L515.762 -45.9209C625.185 -96.6322 748.74 -10.8192 739.43 109.424L736.174 151.475C729.437 238.475 810.109 306.389 894.688 284.922V284.922" stroke="#AA7E71" stroke-width="2.31836"/>
<path d="M254.688 -211.151L253.45 -193.472C244.482 -65.4757 376.1 25.224 492.516 -28.7279L509.246 -36.4815C618.669 -87.1928 742.224 -1.37978 732.914 118.863L729.658 160.914C722.922 247.915 803.593 315.829 888.172 294.361V294.361" stroke="#AA7E71" stroke-width="2.31836"/>
<path d="M248.134 -201.738L246.895 -184.06C237.928 -56.0636 369.545 34.6361 485.961 -19.3158L502.691 -27.0694C612.114 -77.7807 735.669 8.03233 726.359 128.275L723.103 170.326C716.367 257.327 797.038 325.241 881.617 303.773V303.773" stroke="#AA7E71" stroke-width="2.31836"/>
<path d="M241.587 -192.303L240.348 -174.624C231.381 -46.628 362.998 44.0717 479.414 -9.88028L496.144 -17.6338C605.567 -68.3451 729.123 17.4679 719.812 137.711L716.556 179.762C709.82 266.762 790.492 334.676 875.071 313.209V313.209" stroke="#AA7E71" stroke-width="2.31836"/>
<path d="M235.04 -182.873L233.801 -165.195C224.834 -37.1983 356.451 53.5014 472.867 -0.450591L489.597 -8.20413C599.021 -58.9154 722.576 26.8976 713.265 147.141L710.01 189.191C703.273 276.192 783.945 344.106 868.524 322.639V322.639" stroke="#AA7E71" stroke-width="2.31836"/>
<path d="M228.501 -173.434L227.262 -155.755C218.295 -27.7589 349.912 62.9408 466.328 8.98886L483.058 1.23532C592.482 -49.476 716.037 36.337 706.726 156.58L703.471 198.631C696.734 285.631 777.406 353.546 861.985 332.078V332.078" stroke="#AA7E71" stroke-width="2.31836"/>
<path d="M221.907 -163.998L220.669 -146.32C211.701 -18.3233 343.319 72.3764 459.734 18.4244L476.465 10.6709C585.888 -40.0404 709.443 45.7726 700.133 166.016L696.877 208.066C690.141 295.067 770.812 362.981 855.391 341.514V341.514" stroke="#AA7E71" stroke-width="2.31836"/>
<path d="M215.353 -154.572L214.114 -136.894C205.146 -8.89757 336.764 81.8021 453.18 27.8502L469.91 20.0966C579.333 -30.6146 702.888 55.1983 693.578 175.441L690.322 217.492C683.586 304.493 764.257 372.407 848.836 350.939V350.939" stroke="#AA7E71" stroke-width="2.31836"/>
<path d="M208.79 -145.162L207.551 -127.484C198.584 0.51259 330.201 91.2123 446.617 37.2603L463.347 29.5068C572.771 -21.2045 696.326 64.6085 687.015 184.851L683.76 226.902C677.023 313.903 757.695 381.817 842.274 360.35V360.35" stroke="#AA7E71" stroke-width="2.31836"/>
<path d="M202.282 -135.727L201.044 -118.048C192.076 9.94814 323.694 100.648 440.109 46.6959L456.84 38.9423C566.263 -11.7689 689.818 74.044 680.508 194.287L677.252 236.338C670.516 323.338 751.187 391.253 835.766 369.785V369.785" stroke="#AA7E71" stroke-width="2.31836"/>
<path d="M195.673 -126.279L194.434 -108.601C185.467 19.3954 317.084 110.095 433.5 56.1432L450.23 48.3896C559.653 -2.32167 683.208 83.4913 673.898 203.734L670.642 245.785C663.906 332.786 744.578 400.7 829.157 379.232V379.232" stroke="#AA7E71" stroke-width="2.31836"/>
<path d="M189.149 -116.856L187.911 -99.177C178.943 28.8192 310.561 119.519 426.977 65.567L443.707 57.8134C553.13 7.10216 676.685 92.9151 667.375 213.158L664.119 255.209C657.383 342.21 738.054 410.124 822.633 388.656V388.656" stroke="#AA7E71" stroke-width="2.31836"/>
<path d="M182.587 -107.459L181.348 -89.7805C172.381 38.2157 303.998 128.915 420.414 74.9635L437.144 67.2099C546.567 16.4986 670.123 102.312 660.812 222.555L657.556 264.606C650.82 351.606 731.492 419.52 816.071 398.053V398.053" stroke="#AA7E71" stroke-width="2.31836"/>
</g>
</svg>
